<svg xmlns="http://www.w3.org/2000/svg" width="192" height="192">
    <rect x="0" y="0" width="192" height="192" fill="#02773E"/>
    <g fill="#000000" transform="translate(0 192) scale(0.1 -0.1)">
        <path d="m0,960l0,-960l960,0l960,0l0,960l0,960l-960,0l-960,0l0,-960zm170,200l0,-30l116,0l116,0l-4,-25l-5,-25l83,0l84,0l0,-30l0,-30l115,0l115,0l0,-25l0,-24l165,-3l165,-3l0,28l0,27l115,0l115,0l0,30l0,30l85,0c84,0 85,0 85,25l0,25l110,0l110,0l0,30l0,30l60,0l60,0l0,-115l0,-115l-30,0c-25,0 -30,-4 -30,-25c0,-24 -2,-24 -82,-27c-82,-3 -83,-3 -86,-30l-3,-28l-109,0l-109,0l-3,-27l-3,-28l-112,-3c-112,-3 -113,-3 -113,-27c0,-23 -3,-24 -82,-27c-82,-3 -83,-3 -86,-30c-3,-27 -6,-28 -58,-28c-53,0 -54,0 -54,30l0,30l-85,0c-84,0 -85,0 -85,25c0,24 0,24 -112,27l-113,3l-3,28c-3,27 -4,27 -82,27c-78,0 -79,0 -82,28l-3,27l-112,3c-112,3 -113,3 -113,27c0,18 -6,24 -27,27l-28,3l-3,99c-1,55 0,106 2,113c4,9 24,13 61,13c54,0 55,0 55,-30zm110,-505c0,-25 1,-25 85,-25l85,0l0,-30l0,-30l115,0l115,0l0,-27l0,-28l82,0l83,0l3,-27l3,-28l110,0l109,0l0,30l0,30l85,0c84,0 85,0 85,25l0,25l110,0l110,0l0,30l0,30l115,0l115,0l0,25c0,25 1,25 85,25l85,0l0,-310l0,-310l-902,2l-903,3l-3,308l-2,307l115,0l115,0l0,-25z"/>
    </g>
</svg>