<svg xmlns="http://www.w3.org/2000/svg" width="512" height="512">
    <rect x="0" y="0" width="512" height="512" fill="#02773E"/>
    <g fill="#000000" transform="translate(0 512) scale(0.1 -0.1)">
        <path d="m0,2560l0,-2560l2560,0l2560,0l0,2560l0,2560l-2560,0l-2560,0l0,-2560zm450,535l0,-75l300,0l300,0l0,-75l0,-75l225,0l225,0l0,-75l0,-75l300,0l300,0l0,-75l0,-75l450,0l450,0l0,75l0,75l300,0l300,0l0,75l0,75l225,0l225,0l0,75l0,75l300,0l300,0l0,75l0,75l150,0l150,0l0,-300l0,-300l-75,0l-75,0l0,-75l0,-75l-225,0l-225,0l0,-75l0,-75l-300,0l-300,0l0,-75l0,-75l-300,0l-300,0l0,-75l0,-75l-225,0l-225,0l0,-75l0,-75l-150,0l-150,0l0,75l0,75l-225,0l-225,0l0,75l0,75l-300,0l-300,0l0,75l0,75l-225,0l-225,0l0,75l0,75l-300,0l-300,0l0,75l0,75l-75,0l-75,0l0,300l0,300l150,0l150,0l0,-75zm300,-1350l0,-75l225,0l225,0l0,-75l0,-75l300,0l300,0l0,-75l0,-75l225,0l225,0l0,-75l0,-75l300,0l300,0l0,75l0,75l225,0l225,0l0,75l0,75l300,0l300,0l0,75l0,75l300,0l300,0l0,75l0,75l225,0l225,0l0,-825l0,-825l-2400,0l-2400,0l0,825l0,825l300,0l300,0l0,-75z"/>
    </g>
</svg>